<svg id="SvgjsSvg1006" width="474" height="377" xmlns="http://www.w3.org/2000/svg" version="1.1" xmlns:xlink="http://www.w3.org/1999/xlink" xmlns:svgjs="http://svgjs.com/svgjs"><defs id="SvgjsDefs1007"><marker id="SvgjsMarker1026" markerWidth="16" markerHeight="12" refX="0" refY="6" viewBox="0 0 16 12" orient="auto" markerUnits="userSpaceOnUse"><path id="SvgjsPath1027" d="M15,1.5 L2,6 L15,10.5" fill="#323232" stroke="#323232" stroke-width="2"></path></marker><marker id="SvgjsMarker1038" markerWidth="16" markerHeight="12" refX="16" refY="6" viewBox="0 0 16 12" orient="auto" markerUnits="userSpaceOnUse"><path id="SvgjsPath1039" d="M0,2 L14,6 L0,11 L0,2" fill="#323232" stroke="#323232" stroke-width="2"></path></marker><marker id="SvgjsMarker1058" markerWidth="16" markerHeight="12" refX="16" refY="6" viewBox="0 0 16 12" orient="auto" markerUnits="userSpaceOnUse"><path id="SvgjsPath1059" d="M0,2 L14,6 L0,11 L0,2" fill="#323232" stroke="#323232" stroke-width="2"></path></marker><marker id="SvgjsMarker1062" markerWidth="16" markerHeight="12" refX="16" refY="6" viewBox="0 0 16 12" orient="auto" markerUnits="userSpaceOnUse"><path id="SvgjsPath1063" d="M0,2 L14,6 L0,11 L0,2" fill="#323232" stroke="#323232" stroke-width="2"></path></marker></defs><g id="SvgjsG1008" transform="translate(148,25)"><path id="SvgjsPath1009" d="M 0 4Q 0 0 4 0L 172 0Q 176 0 176 4L 176 48Q 176 52 172 52L 4 52Q 0 52 0 48Z" stroke="#323232" stroke-width="2" fill-opacity="1" fill="#ccffff"></path><g id="SvgjsG1010"><text id="SvgjsText1011" font-family="微软雅黑" text-anchor="middle" font-size="13px" width="139" fill="#323232" font-weight="400" align="middle" anchor="middle" family="微软雅黑" size="13px" weight="400" font-style="" y="8.05" transform="rotate(0)"><tspan id="SvgjsTspan1012" dy="16" x="88"><tspan id="SvgjsTspan1013" style="text-decoration:;">引导类加载器</tspan></tspan><tspan id="SvgjsTspan1014" dy="16" x="88"><tspan id="SvgjsTspan1015" style="text-decoration:;">Bootstrap ClassLoader</tspan></tspan></text></g></g><g id="SvgjsG1016" transform="translate(148,117)"><path id="SvgjsPath1017" d="M 0 4Q 0 0 4 0L 172 0Q 176 0 176 4L 176 48Q 176 52 172 52L 4 52Q 0 52 0 48Z" stroke="#323232" stroke-width="2" fill-opacity="1" fill="#ccffff"></path><g id="SvgjsG1018"><text id="SvgjsText1019" font-family="微软雅黑" text-anchor="middle" font-size="13px" width="138" fill="#323232" font-weight="400" align="middle" anchor="middle" family="微软雅黑" size="13px" weight="400" font-style="" y="8.05" transform="rotate(0)"><tspan id="SvgjsTspan1020" dy="16" x="88"><tspan id="SvgjsTspan1021" style="text-decoration:;">扩展类加载器</tspan></tspan><tspan id="SvgjsTspan1022" dy="16" x="88"><tspan id="SvgjsTspan1023" style="text-decoration:;">Extension ClassLoader</tspan></tspan></text></g></g><g id="SvgjsG1024"><path id="SvgjsPath1025" d="M236 77L236 97L236 97L236 117" stroke="#323232" stroke-width="2" fill="none" marker-start="url(#SvgjsMarker1026)"></path></g><g id="SvgjsG1028" transform="translate(148,206)"><path id="SvgjsPath1029" d="M 0 4Q 0 0 4 0L 172 0Q 176 0 176 4L 176 48Q 176 52 172 52L 4 52Q 0 52 0 48Z" stroke="#323232" stroke-width="2" fill-opacity="1" fill="#ccffff"></path><g id="SvgjsG1030"><text id="SvgjsText1031" font-family="微软雅黑" text-anchor="middle" font-size="13px" width="147" fill="#323232" font-weight="400" align="middle" anchor="middle" family="微软雅黑" size="13px" weight="400" font-style="" y="8.05" transform="rotate(0)"><tspan id="SvgjsTspan1032" dy="16" x="88"><tspan id="SvgjsTspan1033" style="text-decoration:;">引导类加载器</tspan></tspan><tspan id="SvgjsTspan1034" dy="16" x="88"><tspan id="SvgjsTspan1035" style="text-decoration:;">Application ClassLoader</tspan></tspan></text></g></g><g id="SvgjsG1036"><path id="SvgjsPath1037" d="M236 206L236 187.5L236 187.5L236 169" stroke="#323232" stroke-width="2" fill="none" marker-end="url(#SvgjsMarker1038)"></path></g><g id="SvgjsG1040" transform="translate(25,300)"><path id="SvgjsPath1041" d="M 0 4Q 0 0 4 0L 172 0Q 176 0 176 4L 176 48Q 176 52 172 52L 4 52Q 0 52 0 48Z" stroke="#323232" stroke-width="2" fill-opacity="1" fill="#ccffff"></path><g id="SvgjsG1042"><text id="SvgjsText1043" font-family="微软雅黑" text-anchor="middle" font-size="13px" width="126" fill="#323232" font-weight="400" align="middle" anchor="middle" family="微软雅黑" size="13px" weight="400" font-style="" y="8.05" transform="rotate(0)"><tspan id="SvgjsTspan1044" dy="16" x="88"><tspan id="SvgjsTspan1045" style="text-decoration:;">自定义类加载器</tspan></tspan><tspan id="SvgjsTspan1046" dy="16" x="88"><tspan id="SvgjsTspan1047" style="text-decoration:;">Custom ClassLoader</tspan></tspan></text></g></g><g id="SvgjsG1048" transform="translate(273,300)"><path id="SvgjsPath1049" d="M 0 4Q 0 0 4 0L 172 0Q 176 0 176 4L 176 48Q 176 52 172 52L 4 52Q 0 52 0 48Z" stroke="#323232" stroke-width="2" fill-opacity="1" fill="#ccffff"></path><g id="SvgjsG1050"><text id="SvgjsText1051" font-family="微软雅黑" text-anchor="middle" font-size="13px" width="126" fill="#323232" font-weight="400" align="middle" anchor="middle" family="微软雅黑" size="13px" weight="400" font-style="" y="8.05" transform="rotate(0)"><tspan id="SvgjsTspan1052" dy="16" x="88"><tspan id="SvgjsTspan1053" style="text-decoration:;">自定义类加载器</tspan></tspan><tspan id="SvgjsTspan1054" dy="16" x="88"><tspan id="SvgjsTspan1055" style="text-decoration:;">Custom ClassLoader</tspan></tspan></text></g></g><g id="SvgjsG1056"><path id="SvgjsPath1057" d="M113 300L236 258" stroke="#323232" stroke-width="2" fill="none" marker-end="url(#SvgjsMarker1058)"></path></g><g id="SvgjsG1060"><path id="SvgjsPath1061" d="M361 300L236 258" stroke="#323232" stroke-width="2" fill="none" marker-end="url(#SvgjsMarker1062)"></path></g></svg>